<svg width="29" height="22" viewBox="0 0 29 22" fill="none" xmlns="http://www.w3.org/2000/svg">
<path d="M9.14963 12.3308C9.14734 12.3389 9.14493 12.347 9.1424 12.3551C9.08014 12.5538 8.98922 12.7222 8.858 12.847C8.71748 12.9806 8.56449 13.0324 8.44207 13.047C8.31425 13.0624 8.1704 13.0418 8.03592 12.9645C7.90245 12.8879 7.80989 12.7738 7.75014 12.6534L8.18095 12.4396L7.75014 12.6534C7.63136 12.4141 7.64526 12.1338 7.66219 11.8956M9.14963 12.3308L7.66219 11.8956M9.14963 12.3308C9.19931 12.3747 9.25075 12.4161 9.30254 12.4532C9.37789 12.5072 9.47103 12.5646 9.57414 12.6042C9.65272 12.6344 9.80548 12.6812 9.98023 12.6414C10.0901 12.6218 10.1788 12.5754 10.2381 12.5373C10.3164 12.4869 10.3863 12.4235 10.4459 12.3542C10.5656 12.215 10.6655 12.0267 10.7079 11.8017C10.7501 11.5774 10.7246 11.3859 10.6724 11.2348C10.6469 11.1611 10.6164 11.1011 10.5889 11.0549C10.563 11.0115 10.5343 10.973 10.5388 10.9794C10.522 10.9557 10.4968 10.9158 10.4745 10.8674C10.4627 10.8419 10.4531 10.817 10.4457 10.7932C10.6019 10.7727 10.7543 10.7148 10.8814 10.644C11.0234 10.5649 11.1846 10.4413 11.2951 10.2658C11.4403 10.0351 11.5551 9.71504 11.456 9.37392C11.378 9.10581 11.0711 8.82105 10.6155 8.88256C10.4685 8.90241 10.2899 8.96437 10.1689 9.00631C10.158 9.0101 10.1475 9.01373 10.1376 9.01715C10.0539 9.04599 9.9866 9.06836 9.93288 9.08427C9.92426 9.04887 9.91324 9.01086 9.89896 8.97252C9.897 8.96726 9.89493 8.96166 9.89276 8.95577C9.87163 8.89868 9.84036 8.81417 9.80223 8.74176C9.75514 8.65235 9.66776 8.52034 9.50325 8.43579C9.1912 8.27539 8.87582 8.39678 8.692 8.57399C8.62945 8.6343 8.56695 8.70602 8.51195 8.80524C8.46213 8.89513 8.42837 8.9901 8.39959 9.08378C8.36322 9.20215 8.34295 9.32307 8.32901 9.40746L8.32843 9.41095C8.3194 9.46561 8.313 9.50439 8.30745 9.5338C8.29212 9.53958 8.27549 9.54562 8.2557 9.55281C8.24275 9.55751 8.22845 9.56271 8.21227 9.56864C8.21035 9.56935 8.20838 9.57007 8.20636 9.57081C8.11639 9.60378 7.93862 9.66892 7.79503 9.78984C7.70481 9.86582 7.63129 9.97028 7.58084 10.0768C7.52687 10.1908 7.48289 10.3415 7.48952 10.5158C7.49473 10.6529 7.53342 10.7673 7.57016 10.8517C7.60081 10.9221 7.63926 10.9909 7.66463 11.0362C7.66766 11.0417 7.6705 11.0467 7.67312 11.0514C7.73209 11.1575 7.7486 11.1996 7.75337 11.2423C7.76198 11.3194 7.75498 11.3784 7.73644 11.4659C7.73341 11.4802 7.72954 11.4972 7.72513 11.5165C7.70469 11.606 7.67287 11.7454 7.66219 11.8956M9.14963 12.3308L7.66219 11.8956" stroke="#021835" stroke-linecap="round"/>
<path d="M21.5163 16.4685L21.5173 16.4534V16.4382C21.5173 16.4349 21.5173 16.4303 21.5174 16.4246C21.5193 16.3103 21.5288 15.7371 21.0869 15.3422L21.0838 15.3394C21.0245 15.2864 20.9428 15.2133 20.819 15.1531C20.7193 15.1046 20.6058 15.0711 20.4822 15.0379C20.4956 14.9845 20.5117 14.95 20.5387 14.8921C20.5544 14.8586 20.5736 14.8174 20.5981 14.76C20.6101 14.732 20.6251 14.7045 20.6549 14.6511L20.6576 14.6463C20.6845 14.5982 20.7239 14.5277 20.7593 14.4451C20.9782 13.9333 20.9728 13.4907 20.9663 13.3631C20.9451 12.9438 20.744 12.6685 20.5949 12.4644L20.5916 12.4599C20.5862 12.4525 20.5808 12.4451 20.5755 12.4378C20.4342 12.2446 20.2984 12.0588 20.1852 11.7483C20.1845 11.7446 20.1834 11.7369 20.1823 11.7243C20.1799 11.6969 20.1791 11.6609 20.1806 11.6196C20.182 11.579 20.1853 11.5391 20.1894 11.5053C20.1914 11.4885 20.1934 11.4745 20.1952 11.4638C20.1958 11.4604 20.1963 11.4576 20.1967 11.4554C20.1984 11.4507 20.2017 11.4417 20.2075 11.4262C20.2222 11.3867 20.2422 11.3303 20.2605 11.2542C20.2963 11.1053 20.3182 10.9124 20.3182 10.6238C20.3182 10.3045 20.2523 9.9358 20.174 9.58956C20.1728 9.58437 20.1711 9.57454 20.1687 9.56086C20.153 9.47168 20.1087 9.21858 19.9996 9.01364C19.8426 8.71862 19.5597 8.48346 19.1145 8.4082C18.7151 8.34069 18.3828 8.43725 18.1947 8.53821C18.2022 8.53412 17.984 8.62357 17.839 8.82333C17.6867 9.03315 17.6395 9.29796 17.6614 9.59935C17.6629 9.67389 17.6714 9.74545 17.6794 9.8015C17.6384 9.80514 17.5929 9.80991 17.5442 9.81632C17.3477 9.8422 17.0812 9.89689 16.8154 10.0264C16.7952 10.0343 16.7788 10.042 16.7676 10.0476C16.7395 10.0615 16.7151 10.0762 16.7013 10.0846C16.6868 10.0935 16.6715 10.1032 16.6595 10.1109L16.6575 10.1121C16.6439 10.1208 16.6316 10.1286 16.6188 10.1365C16.5795 10.1608 16.5465 10.179 16.5185 10.1914L16.5161 10.1875C16.5151 10.1853 16.514 10.1829 16.5128 10.1804C16.5082 10.1706 16.5021 10.1577 16.4919 10.1364C16.4585 10.0669 16.4076 9.96571 16.3336 9.85238C16.1843 9.6237 15.9427 9.34827 15.5532 9.1476L15.5201 9.13055L15.4877 9.11955C15.4877 9.11948 15.4805 9.11652 15.4562 9.10579L15.4534 9.10452C15.4275 9.09306 15.3873 9.07529 15.3421 9.05801C15.2471 9.02176 15.1096 8.97933 14.9442 8.97543C14.5717 8.96663 14.2203 9.15244 13.9261 9.55142L14.3285 9.84818L13.9261 9.55142C13.6742 9.89303 13.6806 10.3881 13.8371 10.8406C13.9613 11.1997 14.142 11.4778 14.2635 11.6647C14.3029 11.7253 14.3361 11.7764 14.3591 11.8175C14.3838 11.8617 14.422 11.9155 14.4444 11.9469C14.4466 11.9501 14.4487 11.953 14.4506 11.9557L14.4516 11.957C14.4817 11.9995 14.5151 12.0466 14.5512 12.1009C14.6249 12.2114 14.7025 12.3407 14.7611 12.4763C14.8849 12.7632 14.8726 12.9426 14.7716 13.0695C14.7029 13.1491 14.6576 13.1888 14.6314 13.2082C14.6187 13.2175 14.6115 13.2214 14.609 13.2227L14.607 13.2236L14.6068 13.2237L14.6067 13.2237C14.6053 13.2241 14.5957 13.2269 14.5462 13.2298C14.5394 13.2302 14.5311 13.2306 14.5217 13.2311C14.4799 13.2332 14.4147 13.2364 14.345 13.2447C14.24 13.2488 14.026 13.2672 13.8112 13.299C13.6844 13.3177 13.5437 13.343 13.4138 13.3769C13.3066 13.4049 13.1561 13.4508 13.0282 13.5324C12.7962 13.6625 12.6337 13.8135 12.5167 13.9692C12.4134 14.1066 12.3527 14.2412 12.3217 14.31C12.3181 14.3178 12.3149 14.3248 12.3122 14.3309L12.7662 14.5403L12.3122 14.3309C12.2568 14.4508 12.1573 14.7119 12.2078 15.0323C12.2625 15.3788 12.477 15.7024 12.8818 15.9499L12.9119 15.9683L12.9443 15.9823C12.8369 15.9359 13.0976 16.0813 13.3209 16.1218C13.5899 16.1705 13.9184 16.1385 14.3053 15.9599L14.0957 15.5059L14.3053 15.9599C14.3142 15.9557 14.3291 15.9478 14.3495 15.9371C14.5217 15.846 15.0875 15.5468 15.8076 15.5259C15.8874 15.5269 16.1879 15.549 16.445 15.653C16.8934 15.8899 17.1973 15.9288 17.4383 15.9597C17.4459 15.9607 17.4535 15.9617 17.461 15.9627C17.6414 15.9859 17.7719 16.0033 18.0138 16.1625C18.0277 16.1737 18.0402 16.1834 18.0478 16.1893C18.0491 16.1902 18.0502 16.1911 18.0512 16.1918C18.0632 16.2011 18.0737 16.2092 18.0847 16.2177C18.0995 16.2291 18.1152 16.2411 18.1365 16.2576C18.2025 16.3088 18.2857 16.3743 18.373 16.4481C18.561 16.6068 18.7215 16.765 18.7936 16.8774L18.8122 16.9063L18.8124 16.9066C18.8146 16.9106 18.8174 16.9157 18.8206 16.9216C18.8329 16.9441 18.8515 16.9784 18.8713 17.0125C18.9238 17.1028 19.0042 17.2289 19.1214 17.3509C19.372 17.6116 19.7671 17.8244 20.3204 17.7386C20.3875 17.7302 20.4681 17.7102 20.5436 17.6855C20.6454 17.6522 20.7772 17.5976 20.9117 17.51C21.1905 17.3285 21.4842 16.9981 21.5163 16.4685ZM17.8715 9.78845C17.8769 9.7878 17.8801 9.78756 17.8804 9.7876C17.8806 9.78765 17.8779 9.78797 17.8715 9.78845ZM18.1947 8.53822L18.4312 8.97876L18.1947 8.53822Z" stroke="#021835" stroke-linecap="round"/>
<path d="M27 8.46657C27 10.2665 25.7648 12.0722 23.3891 13.4822C21.035 14.8794 17.7178 15.7759 14 15.7759C10.2822 15.7759 6.96498 14.8794 4.6109 13.4822C2.23519 12.0722 1 10.2665 1 8.46657C1 6.66667 2.23519 4.86096 4.6109 3.45092C6.96498 2.05371 10.2822 1.15723 14 1.15723C17.7178 1.15723 21.035 2.05371 23.3891 3.45092C25.7648 4.86096 27 6.66667 27 8.46657Z" stroke="#021835" stroke-width="2"/>
<path d="M27 13.1707C27 14.9706 25.7648 16.7763 23.3891 18.1863C21.035 19.5835 17.7178 20.48 14 20.48C10.2822 20.48 6.96498 19.5835 4.6109 18.1863C2.23519 16.7763 1 14.9706 1 13.1707C1 11.3708 2.23519 9.56506 4.6109 8.15502C6.96498 6.75782 10.2822 5.86133 14 5.86133C17.7178 5.86133 21.035 6.75782 23.3891 8.15502C25.7648 9.56506 27 11.3708 27 13.1707Z" stroke="#021835" stroke-width="2"/>
<line x1="1" y1="8.4668" x2="1" y2="13.2858" stroke="#021835" stroke-width="2"/>
<line x1="27.0024" y1="8.4668" x2="27.0024" y2="13.2858" stroke="#021835" stroke-width="2"/>
</svg>
