<svg width="30" height="32" viewBox="0 0 30 32" fill="none" xmlns="http://www.w3.org/2000/svg">
<path d="M3.96458 17.235C5.22212 16.5952 7.09208 16.4707 7.62453 15.9883C8.05161 15.6015 8.46668 14.6109 8.83783 12.3401C9.20898 10.0692 8.83963 6.70347 9.15786 4.80579C9.47609 2.90812 10.6396 1.98265 11.0183 1.81983C12.3363 1.25326 13.5588 1.52838 14.5889 2.39449C15.6189 3.26061 15.9437 5.51857 15.5792 7.18224C15.2877 8.51264 15.0819 9.58365 15.6462 10.3086C16.2105 11.0335 16.7031 11.2648 18.4008 10.807C20.0986 10.3491 21.7884 9.16651 22.6517 8.47942C22.9172 8.26812 24.3794 6.99504 26.3726 7.24566C28.3658 7.49627 29.1807 9.16242 28.9668 10.1263C28.9746 11.4079 26.3044 14.4961 24.193 16.3016C21.3917 18.6972 21.1954 18.7958 19.97 20.4174C19.2755 21.3364 20.0209 21.8397 21.2546 22.1436C22.4882 22.4475 24.8294 21.5388 26.1382 21.937C28.204 22.5655 28.2216 23.7724 28.1115 24.3847C28.0014 24.997 27.5882 25.7232 26.6699 26.2935C25.7516 26.8638 24.6002 27.0536 22.6088 27.1078C20.4872 27.1655 19.441 26.3052 16.9529 26.9088C14.4648 27.5123 12.5004 29.8088 10.7856 30.0814C9.52305 30.282 8.7519 29.5615 8.55901 29.1259C8.00542 27.8758 8.37193 25.3885 8.01919 24.1832C7.96452 23.9964 7.77038 23.3545 6.7953 23.0994C5.82021 22.8443 4.30736 22.8993 3.14206 22.5554C1.97676 22.2115 1.59467 21.9096 1.22581 21.2474C0.85694 20.5852 0.949213 19.7311 1.43522 18.9957C1.92122 18.2603 2.70704 17.8747 3.96458 17.235Z" stroke="#021835" stroke-width="2" stroke-linecap="round"/>
<path d="M11.7812 22.3049L11.7875 22.2919L11.793 22.2787C11.7933 22.2779 11.794 22.2764 11.795 22.2743C11.8166 22.2264 11.9842 21.8549 11.8126 21.4716C11.8119 21.4701 11.8112 21.4686 11.8105 21.4669C11.7947 21.4315 11.7647 21.3644 11.7092 21.2924C11.7327 21.2728 11.7666 21.2437 11.8012 21.2085C12.0405 20.9655 12.1427 20.7123 12.1716 20.6317C12.2694 20.3597 12.2201 20.1308 12.191 19.9961C12.1904 19.9932 12.1898 19.9905 12.1893 19.9877C12.1884 19.9839 12.1876 19.9802 12.1868 19.9764C12.1623 19.8624 12.1431 19.7732 12.148 19.6428C12.1498 19.6384 12.152 19.6332 12.1548 19.6271C12.1612 19.6129 12.1684 19.5989 12.1746 19.5876C12.1925 19.5675 12.2182 19.5376 12.2472 19.4967C12.3073 19.4119 12.3646 19.3044 12.4278 19.1521C12.5028 18.9713 12.551 18.7564 12.5861 18.5657C12.5872 18.5602 12.5888 18.5529 12.5939 18.5296C12.5982 18.5101 12.6044 18.4814 12.6101 18.4497C12.6213 18.3867 12.6337 18.2946 12.6259 18.1889C12.6079 17.9444 12.4867 17.6995 12.2205 17.5289C11.9896 17.381 11.7514 17.3553 11.5909 17.3752C11.6261 17.3708 11.4306 17.3755 11.2632 17.4842C11.1195 17.5774 11.0267 17.7127 10.9647 17.8585C10.8917 17.8469 10.8087 17.8393 10.7194 17.8413C10.6887 17.6748 10.6179 17.4614 10.4519 17.2559L10.4276 17.2258L10.4083 17.2083C10.4074 17.2072 10.4062 17.2059 10.4049 17.2045C10.4044 17.204 10.4039 17.2034 10.4034 17.2029C10.3935 17.192 10.3743 17.171 10.3516 17.1486C10.303 17.1009 10.2217 17.03 10.1055 16.9784C9.83116 16.8566 9.53802 16.9118 9.27213 17.0816C8.99842 17.2564 8.88497 17.5857 8.86284 17.8733C8.84452 18.1115 8.88294 18.3459 8.90005 18.4502C8.90385 18.4734 8.9066 18.4902 8.90744 18.4992C8.91021 18.5287 8.91508 18.5553 8.91715 18.5665C8.91974 18.5806 8.92283 18.5961 8.9253 18.6084L8.92548 18.6093C8.93097 18.6367 8.93644 18.664 8.94171 18.6948C8.95241 18.7573 8.96013 18.8225 8.95981 18.8833C8.95955 18.9326 8.95399 18.9654 8.94854 18.9848C8.93853 18.9816 8.92769 18.9783 8.91609 18.975C8.84942 18.9513 8.7415 18.9187 8.6362 18.8931C8.56749 18.8765 8.48568 18.8592 8.40424 18.8491C8.34415 18.8415 8.2336 18.8305 8.11716 18.8526C7.76632 18.9046 7.5807 19.0849 7.50174 19.1616C7.49797 19.1653 7.49444 19.1687 7.49115 19.1719C7.42629 19.2343 7.29329 19.379 7.23696 19.6044C7.17461 19.854 7.22512 20.1242 7.40076 20.3787L7.42143 20.4087L7.44622 20.4353C7.35244 20.3345 7.51316 20.5332 7.64128 20.6175C7.81125 20.7294 8.02968 20.7874 8.29501 20.7712C8.30478 20.7706 8.31834 20.7691 8.33523 20.7673C8.4467 20.7553 8.70356 20.7276 8.97845 20.8297C8.98753 20.834 9.01634 20.8481 9.05344 20.8713C9.09348 20.8964 9.1305 20.9243 9.15879 20.9516C9.34663 21.1856 9.51047 21.2812 9.62626 21.3487C9.62925 21.3505 9.6322 21.3522 9.63513 21.3539C9.68265 21.3817 9.69507 21.3907 9.70621 21.4005C9.71467 21.4081 9.73345 21.4262 9.76276 21.4705C9.7663 21.4773 9.76897 21.4822 9.77004 21.4842C9.77026 21.4846 9.77041 21.4848 9.77049 21.485L9.79697 21.5342C9.81675 21.5711 9.84059 21.6166 9.86441 21.666C9.88853 21.716 9.91055 21.7658 9.92746 21.8109C9.94546 21.859 9.95186 21.8866 9.95322 21.8954L9.95488 21.9062C9.95597 21.9194 9.95806 21.9442 9.96066 21.968C9.96762 22.0314 9.98206 22.13 10.0209 22.2382C10.1066 22.4767 10.3054 22.7336 10.6833 22.8233C10.7392 22.8378 10.798 22.8447 10.8456 22.8475C10.9179 22.8519 11.0145 22.85 11.1223 22.8271C11.3515 22.7784 11.6227 22.6327 11.7812 22.3049ZM11.2906 17.9446C11.2912 17.9448 11.2912 17.9448 11.2906 17.9446L11.2906 17.9446ZM9.95394 21.8953C9.95397 21.8956 9.95399 21.8959 9.95402 21.8962C9.95398 21.8959 9.95394 21.8956 9.9539 21.8953C9.9533 21.8908 9.95306 21.8881 9.95309 21.8878C9.95312 21.8876 9.95343 21.8899 9.95394 21.8953Z" stroke="#021835" stroke-linecap="round"/>
<path d="M16.7027 19.495C16.6814 19.5059 16.841 19.4437 16.96 19.2913C17.013 19.2236 17.0534 19.1474 17.085 19.0651C17.254 19.1398 17.4661 19.197 17.7036 19.1755C17.7431 19.178 17.7777 19.1762 17.8049 19.1732C17.8865 19.1645 17.9587 19.1405 18.0158 19.1155C18.1337 19.0638 18.2501 18.9804 18.3521 18.8696C18.5641 18.6395 18.7154 18.2922 18.723 17.8251C18.724 17.7658 18.7141 17.7033 18.7109 17.683C18.7107 17.6815 18.7105 17.6803 18.7103 17.6793C18.707 17.6574 18.7049 17.6445 18.7028 17.632C18.7004 17.6174 18.6982 17.6034 18.694 17.5761C18.6829 17.5029 18.6727 17.4215 18.67 17.338C18.6654 17.1942 18.6851 17.1038 18.7089 17.0524C18.766 17.058 18.8292 17.0614 18.8877 17.0617C18.9499 17.062 19.0281 17.0591 19.1084 17.0464C19.171 17.0364 19.2821 17.0137 19.3912 16.9478C19.6688 16.7952 19.7974 16.5641 19.8458 16.477C19.8491 16.471 19.8521 16.4656 19.8547 16.4611C19.9278 16.3329 20.1725 15.8439 19.846 15.3216L19.8235 15.2855L19.8166 15.2778C19.8093 15.2673 19.8 15.2545 19.7891 15.2406C19.749 15.1897 19.6836 15.1203 19.5852 15.064C19.3624 14.9365 19.1065 14.9481 18.8663 15.0494L18.8663 15.0494C18.8491 15.0567 18.8349 15.0639 18.8333 15.0647L18.8331 15.0648L18.8233 15.0698L18.8115 15.0759C18.804 15.0798 18.7941 15.0847 18.7818 15.0904C18.7566 15.1021 18.7219 15.1166 18.6812 15.1294C18.6039 15.1537 18.5302 15.164 18.4688 15.1571C18.4661 15.1559 18.463 15.1544 18.4598 15.1526C18.4513 15.1482 18.4431 15.1431 18.4359 15.1377C18.4341 15.1364 18.4324 15.1351 18.4308 15.1338C18.3553 15.0343 18.2767 14.9552 18.1907 14.8917C18.1055 14.8289 18.0244 14.7911 17.9862 14.7733C17.9828 14.7717 17.9796 14.7702 17.9769 14.769C17.9739 14.7675 17.9713 14.7663 17.969 14.7652C17.9656 14.7604 17.9612 14.7537 17.9557 14.7446C17.9532 14.7392 17.9514 14.7353 17.9505 14.7336C17.9503 14.7332 17.9502 14.7329 17.9501 14.7327L17.9277 14.6855C17.9111 14.6503 17.8909 14.6066 17.8707 14.5586C17.8259 14.4525 17.7962 14.3615 17.7885 14.3078L17.7861 14.2912C17.7859 14.2896 17.7858 14.2876 17.7856 14.2855C17.7842 14.271 17.7821 14.247 17.7794 14.2233C17.7727 14.1629 17.7597 14.0678 17.728 13.9665C17.6974 13.8686 17.6382 13.7277 17.5153 13.6077C17.382 13.4775 17.2038 13.4021 17.0031 13.4015C16.9655 13.4007 16.9363 13.4037 16.9248 13.4049C16.8921 13.4083 16.8562 13.4144 16.8183 13.4239C16.7422 13.443 16.6517 13.4772 16.5586 13.5367C16.3623 13.6621 16.196 13.8728 16.1089 14.1811L16.1063 14.1902L16.104 14.1994C16.1036 14.2013 16.103 14.2036 16.1024 14.2063C16.0938 14.2412 16.0694 14.34 16.0582 14.4573C16.0468 14.5763 16.0428 14.7667 16.118 14.9591L16.5484 14.7909L16.118 14.9591C16.1187 14.9609 16.1195 14.9629 16.1203 14.9651C16.1339 15.0002 16.1666 15.0849 16.2324 15.1683C16.1823 15.2529 16.1462 15.332 16.1213 15.3867C16.1129 15.4052 16.1057 15.4209 16.0997 15.433C16.0452 15.5435 15.9744 15.6668 15.8057 15.8229C15.5987 16.0144 15.3585 16.3644 15.293 16.8071C15.2302 17.2315 15.335 17.6985 15.6991 18.1325C15.6964 18.1387 15.6938 18.145 15.6911 18.1513C15.6632 18.2177 15.6226 18.3245 15.6102 18.4521C15.61 18.4544 15.6093 18.4591 15.6084 18.4659C15.6018 18.5165 15.5799 18.6827 15.5919 18.826C15.6077 19.0145 15.6879 19.3104 15.9975 19.4802C16.2776 19.6338 16.5512 19.5725 16.7027 19.495ZM16.7027 19.495C16.7027 19.495 16.7027 19.495 16.7027 19.495L16.4752 19.0498M16.7027 19.495L16.4752 19.0498M16.4752 19.0498C16.4789 19.0479 16.4827 19.0461 16.4868 19.0442C16.5298 19.0241 16.5975 18.9924 16.6479 18.7891L16.7703 15.2808C16.6868 15.3606 16.642 15.456 16.5891 15.5685C16.5103 15.736 16.4137 15.9415 16.1453 16.1899C15.8686 16.446 15.4524 17.1944 16.193 17.9316C16.294 18.0321 16.2404 18.1494 16.1828 18.2758C16.1497 18.3483 16.1153 18.4237 16.1078 18.5006C16.1062 18.5172 16.104 18.5354 16.1016 18.5549C16.0829 18.7094 16.0549 18.9414 16.238 19.0418C16.3361 19.0957 16.4295 19.0731 16.4752 19.0498ZM15.7581 17.9978C15.7581 17.9978 15.7578 17.9989 15.7569 18.0014L15.7581 17.9978ZM18.5485 17.0324L18.5497 17.0326L18.5485 17.0324ZM19.8391 15.3111C19.8392 15.3114 19.8376 15.3091 19.8337 15.3031C19.8369 15.3078 19.8389 15.3108 19.8391 15.3111ZM17.7878 14.3073C17.7878 14.3074 17.7875 14.3058 17.7871 14.3019C17.7876 14.3052 17.7878 14.3071 17.7878 14.3073Z" stroke="#021835" stroke-linecap="round"/>
</svg>
