<svg width="32" height="17" viewBox="0 0 32 17" fill="none" xmlns="http://www.w3.org/2000/svg">
<path d="M6.74283 6.36737C6.52567 6.11854 6.28355 5.90139 6.04088 5.72646C5.74731 5.51483 5.40539 5.32983 5.04225 5.22972C4.68969 5.13252 4.21028 5.08848 3.74686 5.31681L3.74686 5.3168L3.74299 5.31873C3.27326 5.55269 3.00574 5.98813 2.8553 6.32898C2.69195 6.69909 2.5906 7.12885 2.54173 7.56849C2.45926 8.31048 2.51503 9.18531 2.77304 10.0326C2.59222 10.3428 2.3785 10.664 2.14912 11.0088L2.14721 11.0117L2.13627 11.0281C1.83997 11.4735 1.49857 11.9866 1.27735 12.4771C1.06483 12.9482 0.83777 13.6644 1.16141 14.3791C1.49131 15.1077 2.21931 15.4622 2.9705 15.6492L3.08946 15.6788H3.21205H20.8639C21.8016 15.6788 22.76 15.2462 23.5084 14.7581C24.0741 14.3892 24.6132 13.9276 25.0224 13.4444C26.616 13.5271 27.8933 13.3656 28.8923 12.9452L28.8926 12.9451C30.0693 12.4495 31 11.4182 31 10.1207V10.061L30.9929 10.0018C30.7913 8.31879 29.4434 7.50116 28.4376 7.11243L28.4331 7.11074C27.9429 6.92394 27.5738 6.80246 27.213 6.73655C26.8458 6.66948 26.5267 6.66804 26.1805 6.66804H26.1548L26.1292 6.66936C25.4835 6.70251 25.0169 7.05048 24.7621 7.49749C24.2888 6.52745 23.6667 5.62344 22.9279 4.8401C21.3296 3.14535 19.1272 1.95801 16.6217 1.95801C14.7634 1.95801 12.8806 2.60228 11.088 3.53626C9.60596 4.3084 8.14024 5.30263 6.74283 6.36737ZM25.642 10.1659C25.6223 10.0556 25.6005 9.94538 25.5768 9.83546C25.7344 9.90169 25.9005 9.94527 26.0681 9.96422C26.184 9.97731 26.2892 9.98552 26.3714 9.99192C26.3861 9.99307 26.4001 9.99416 26.4132 9.99521C26.5046 10.0025 26.5684 10.0086 26.6336 10.0186C26.7016 10.029 26.7876 10.0462 26.9113 10.083C26.5837 10.1357 26.1638 10.1706 25.642 10.1659Z" stroke="#021835" stroke-width="2"/>
<path d="M8.55911 10.3482C8.55911 9.71328 8.04409 9.19824 7.40911 9.19824C6.77415 9.19824 6.25911 9.71286 6.25911 10.3482C6.25911 10.9832 6.77415 11.4982 7.40911 11.4982C8.04407 11.4982 8.55911 10.9836 8.55911 10.3482Z" stroke="#021835"/>
</svg>
