<svg width="14" height="18" viewBox="0 0 14 18" fill="none" xmlns="http://www.w3.org/2000/svg">
<g clip-path="url(#clip0_1684_6201)">
<path d="M7.89262 4.78125V0H0.845638C0.377013 0 0 0.376172 0 0.84375V17.1562C0 17.6238 0.377013 18 0.845638 18H12.6846C13.1532 18 13.5302 17.6238 13.5302 17.1562V5.625H8.73825C8.27315 5.625 7.89262 5.24531 7.89262 4.78125ZM10.0102 8.52539L7.89262 11.8125L10.0102 15.0996C10.1899 15.3809 9.98909 15.75 9.65436 15.75H8.42466C8.26963 15.75 8.12517 15.6656 8.05117 15.5285C7.36057 14.2559 6.7651 13.1133 6.7651 13.1133C6.5396 13.6336 6.41275 13.8164 5.4755 15.532C5.40151 15.6691 5.26057 15.7535 5.10554 15.7535H3.87584C3.54111 15.7535 3.34027 15.3844 3.51997 15.1031L5.64463 11.816L3.51997 8.52891C3.33674 8.24766 3.54111 7.87852 3.87584 7.87852H5.10201C5.25705 7.87852 5.40151 7.96289 5.4755 8.1C6.39513 9.81562 6.1802 9.28125 6.7651 10.5082C6.7651 10.5082 6.98003 10.0969 8.0547 8.1C8.12869 7.96289 8.27315 7.87852 8.42819 7.87852H9.65436C9.98909 7.875 10.1899 8.24414 10.0102 8.52539ZM13.5302 4.28555V4.5H9.02013V0H9.23507C9.46057 0 9.6755 0.0878906 9.83406 0.246094L13.2836 3.69141C13.4421 3.84961 13.5302 4.06406 13.5302 4.28555Z" fill="#E9B114"/>
</g>
<defs>
<clipPath id="clip0_1684_6201">
<rect width="13.5302" height="18" fill="white"/>
</clipPath>
</defs>
</svg>
