<?xml version="1.0" encoding="utf-8"?>
<!-- Generator: Adobe Illustrator 24.0.3, SVG Export Plug-In . SVG Version: 6.00 Build 0)  -->
<svg version="1.2" baseProfile="tiny" id="Layer_1" xmlns="http://www.w3.org/2000/svg" xmlns:xlink="http://www.w3.org/1999/xlink"
	 x="0px" y="0px" viewBox="0 0 1037.66 225.89" xml:space="preserve">
<g>
	<g>
		<g>
			<path fill="#07B5D9" d="M3,134.58c-0.96,0-1.75-0.79-1.75-1.75v-81c0-0.96,0.79-1.75,1.75-1.75h145c0.96,0,1.75,0.79,1.75,1.75
				v81c0,0.96-0.79,1.75-1.75,1.75H3z"/>
			<path d="M148,50.33c0.83,0,1.5,0.67,1.5,1.5v81c0,0.83-0.67,1.5-1.5,1.5H3c-0.83,0-1.5-0.67-1.5-1.5v-81c0-0.83,0.67-1.5,1.5-1.5
				H148 M148,49.83H3c-1.1,0-2,0.9-2,2v81c0,1.1,0.9,2,2,2h145c1.1,0,2-0.9,2-2v-81C150,50.73,149.1,49.83,148,49.83L148,49.83z"/>
		</g>
		<text transform="matrix(1 0 0 1 43.4883 80.601)" fill="#FFFFFF" font-family="'ArialMT'" font-size="16px">Fill in the</text>
		<text transform="matrix(1 0 0 1 40.8165 112.601)" fill="#FFFFFF" font-family="'ArialMT'" font-size="16px">templates</text>
	</g>
	<g>
		<g>
			<path fill="#07B5D9" d="M225,134.58c-0.96,0-1.75-0.79-1.75-1.75v-81c0-0.96,0.79-1.75,1.75-1.75h145c0.96,0,1.75,0.79,1.75,1.75
				v81c0,0.96-0.79,1.75-1.75,1.75H225z"/>
			<path d="M370,50.33c0.83,0,1.5,0.67,1.5,1.5v81c0,0.83-0.67,1.5-1.5,1.5H225c-0.83,0-1.5-0.67-1.5-1.5v-81
				c0-0.83,0.67-1.5,1.5-1.5H370 M370,49.83H225c-1.1,0-2,0.9-2,2v81c0,1.1,0.9,2,2,2h145c1.1,0,2-0.9,2-2v-81
				C372,50.73,371.1,49.83,370,49.83L370,49.83z"/>
		</g>
		<text transform="matrix(1 0 0 1 265.4723 80.601)" fill="#FFFFFF" font-family="'ArialMT'" font-size="16px">Send the</text>
		<text transform="matrix(1 0 0 1 262.816 112.601)" fill="#FFFFFF" font-family="'ArialMT'" font-size="16px">templates</text>
	</g>
	<g>
		<g>
			<path fill="#1C19A3" d="M446.67,184.42c-0.96,0-1.75-0.79-1.75-1.75v-81c0-0.96,0.79-1.75,1.75-1.75h145
				c0.96,0,1.75,0.79,1.75,1.75v81c0,0.96-0.79,1.75-1.75,1.75H446.67z"/>
			<path d="M591.67,100.17c0.83,0,1.5,0.67,1.5,1.5v81c0,0.83-0.67,1.5-1.5,1.5h-145c-0.83,0-1.5-0.67-1.5-1.5v-81
				c0-0.83,0.67-1.5,1.5-1.5H591.67 M591.67,99.67h-145c-1.1,0-2,0.9-2,2v81c0,1.1,0.9,2,2,2h145c1.1,0,2-0.9,2-2v-81
				C593.67,100.56,592.77,99.67,591.67,99.67L591.67,99.67z"/>
		</g>
		<text transform="matrix(1 0 0 1 485.8104 130.434)" fill="#FFFFFF" font-family="'ArialMT'" font-size="16px">Metadata</text>
		<text transform="matrix(1 0 0 1 485.3651 162.434)" fill="#FFFFFF" font-family="'ArialMT'" font-size="16px">validation</text>
	</g>
	<g>
		<g>
			<path fill="#1C19A3" d="M446.24,52.07c-0.73,0-1.32-0.59-1.32-1.32V1.57c0-0.73,0.59-1.32,1.32-1.32H592.1
				c0.73,0,1.32,0.59,1.32,1.32v49.18c0,0.73-0.59,1.32-1.32,1.32H446.24z"/>
			<g>
				<path d="M592.1,0.5c0.59,0,1.07,0.48,1.07,1.07v49.18c0,0.59-0.48,1.07-1.07,1.07H446.23c-0.59,0-1.07-0.48-1.07-1.07V1.57
					c0-0.59,0.48-1.07,1.07-1.07H592.1 M592.1,0H446.23c-0.87,0-1.57,0.7-1.57,1.57v49.18c0,0.87,0.7,1.57,1.57,1.57H592.1
					c0.87,0,1.57-0.7,1.57-1.57V1.57C593.67,0.7,592.96,0,592.1,0L592.1,0z"/>
			</g>
		</g>
		<text transform="matrix(1 0 0 1 484.9197 30.426)" fill="#FFFFFF" font-family="'ArialMT'" font-size="16px">Data load</text>
	</g>
	<g>
		<g>
			<path fill="#07B5D9" d="M668.23,118.24c-0.73,0-1.32-0.59-1.32-1.32V67.74c0-0.73,0.59-1.32,1.32-1.32H814.1
				c0.73,0,1.32,0.59,1.32,1.32v49.18c0,0.73-0.59,1.32-1.32,1.32H668.23z"/>
			<path d="M814.1,66.67c0.59,0,1.07,0.48,1.07,1.07v49.18c0,0.59-0.48,1.07-1.07,1.07H668.23c-0.59,0-1.07-0.48-1.07-1.07V67.74
				c0-0.59,0.48-1.07,1.07-1.07H814.1 M814.1,66.17H668.23c-0.87,0-1.57,0.7-1.57,1.57v49.18c0,0.87,0.7,1.57,1.57,1.57H814.1
				c0.87,0,1.57-0.7,1.57-1.57V67.74C815.67,66.88,814.96,66.17,814.1,66.17L814.1,66.17z"/>
		</g>
		<text transform="matrix(1 0 0 1 686.4623 96.6012)" fill="#FFFFFF" font-family="'ArialMT'" font-size="16px">Apply feedback</text>
	</g>
	<g>
		<g>
			<path fill="#1C19A3" d="M890.23,118.24c-0.73,0-1.32-0.59-1.32-1.32V67.74c0-0.73,0.59-1.32,1.32-1.32h145.86
				c0.73,0,1.32,0.59,1.32,1.32v49.18c0,0.73-0.59,1.32-1.32,1.32H890.23z"/>
			<g>
				<path d="M1036.1,66.67c0.59,0,1.07,0.48,1.07,1.07v49.18c0,0.59-0.48,1.07-1.07,1.07H890.23c-0.59,0-1.07-0.48-1.07-1.07V67.74
					c0-0.59,0.48-1.07,1.07-1.07H1036.1 M1036.1,66.17H890.23c-0.87,0-1.57,0.7-1.57,1.57v49.18c0,0.87,0.7,1.57,1.57,1.57h145.86
					c0.87,0,1.57-0.7,1.57-1.57V67.74C1037.66,66.88,1036.96,66.17,1036.1,66.17L1036.1,66.17z"/>
			</g>
		</g>
		<text transform="matrix(1 0 0 1 933.8134 96.6012)" fill="#FFFFFF" font-family="'ArialMT'" font-size="16px">Release</text>
	</g>
	<g>
		<g>
			<text transform="matrix(1 0 0 1 19.7502 220.6916)" font-family="'ArialMT'" font-size="16px">Model provider</text>
			<rect y="206.82" fill="#07B5D9" width="15.87" height="15.87"/>
		</g>
		<g>
			<text transform="matrix(1 0 0 1 282.4163 220.6916)" font-family="'ArialMT'" font-size="16px">CancerModels.Org team</text>
			<rect x="262.67" y="206.82" fill="#1C19A3" width="15.87" height="15.87"/>
		</g>
	</g>
	<g>
		<line fill="none" stroke="#6B757E" stroke-width="2" stroke-miterlimit="10" x1="818.92" y1="92.33" x2="878.96" y2="92.33"/>
		<g>
			<polygon fill="#6B757E" points="877.64,96.82 885.42,92.33 877.64,87.85 			"/>
		</g>
	</g>
	<g>
		<line fill="none" stroke="#6B757E" stroke-width="2" stroke-miterlimit="10" x1="153.25" y1="92.33" x2="213.29" y2="92.33"/>
		<g>
			<polygon fill="#6B757E" points="211.98,96.82 219.75,92.33 211.98,87.85 			"/>
		</g>
	</g>
	<g>
		<path fill="none" stroke="#6B757E" stroke-width="2" stroke-miterlimit="10" d="M375.33,92.33h31.33c1.1,0,2,0.9,2,2v45.83
			c0,1.1,0.9,2,2,2h24.29"/>
		<g>
			<polygon fill="#6B757E" points="433.64,146.65 441.42,142.17 433.64,137.68 			"/>
		</g>
	</g>
	<g>
		<path fill="none" stroke="#6B757E" stroke-width="2" stroke-miterlimit="10" d="M375.25,92.33h31.42c1.1,0,2-0.9,2-2V28.16
			c0-1.1,0.9-2,2-2h24.29"/>
		<g>
			<polygon fill="#6B757E" points="433.64,30.65 441.42,26.16 433.64,21.67 			"/>
		</g>
	</g>
	<g>
		<path fill="none" stroke="#6B757E" stroke-width="2" stroke-miterlimit="10" d="M656.1,92.33h-24.87c-1.1,0-2,0.9-2,2v45.83
			c0,1.1-0.9,2-2,2h-30.31"/>
		<g>
			<polygon fill="#6B757E" points="654.79,87.85 662.56,92.33 654.79,96.82 			"/>
		</g>
	</g>
	<g>
		<path fill="none" stroke="#6B757E" stroke-width="2" stroke-miterlimit="10" d="M656.96,92.33h-25.73c-1.1,0-2-0.9-2-2V28.16
			c0-1.1-0.9-2-2-2h-30.31"/>
		<g>
			<polygon fill="#6B757E" points="655.64,87.85 663.42,92.33 655.64,96.82 			"/>
		</g>
	</g>
</g>
</svg>
