<?xml version="1.0" encoding="utf-8"?>
<!-- Generator: Adobe Illustrator 24.0.3, SVG Export Plug-In . SVG Version: 6.00 Build 0)  -->
<svg version="1.2" baseProfile="tiny" id="Layer_1" xmlns="http://www.w3.org/2000/svg" xmlns:xlink="http://www.w3.org/1999/xlink"
	 x="0px" y="0px" viewBox="0 0 327.25 718.69" xml:space="preserve">
<g>
	<g>
		<g>
			<text transform="matrix(1 0 0 1 22.479 713.4995)" font-family="'ArialMT'" font-size="16px">Model provider</text>
			<rect x="2.73" y="699.62" fill="#07B5D9" width="15.87" height="15.87"/>
		</g>
		<g>
			<text transform="matrix(1 0 0 1 187.6035 713.4995)" font-family="'ArialMT'" font-size="16px">CancerModels.Org team</text>
			<rect x="167.85" y="699.62" fill="#1C19A3" width="15.87" height="15.87"/>
		</g>
	</g>
	<g>
		<g>
			<path fill="#07B5D9" d="M91.13,84.75c-0.96,0-1.75-0.79-1.75-1.75V2c0-0.96,0.79-1.75,1.75-1.75h145c0.96,0,1.75,0.79,1.75,1.75
				v81c0,0.96-0.79,1.75-1.75,1.75H91.13z"/>
			<path d="M236.13,0.5c0.83,0,1.5,0.67,1.5,1.5v81c0,0.83-0.67,1.5-1.5,1.5h-145c-0.83,0-1.5-0.67-1.5-1.5V2
				c0-0.83,0.67-1.5,1.5-1.5H236.13 M236.13,0h-145c-1.1,0-2,0.9-2,2v81c0,1.1,0.9,2,2,2h145c1.1,0,2-0.9,2-2V2
				C238.13,0.9,237.23,0,236.13,0L236.13,0z"/>
		</g>
		<text transform="matrix(1 0 0 1 131.6154 30.7678)" fill="#FFFFFF" font-family="'ArialMT'" font-size="16px">Fill in the</text>
		<text transform="matrix(1 0 0 1 128.9435 62.7678)" fill="#FFFFFF" font-family="'ArialMT'" font-size="16px">templates</text>
	</g>
	<g>
		<g>
			<path fill="#07B5D9" d="M91.13,242.75c-0.96,0-1.75-0.79-1.75-1.75v-81c0-0.96,0.79-1.75,1.75-1.75h145
				c0.96,0,1.75,0.79,1.75,1.75v81c0,0.96-0.79,1.75-1.75,1.75H91.13z"/>
			<path d="M236.13,158.5c0.83,0,1.5,0.67,1.5,1.5v81c0,0.83-0.67,1.5-1.5,1.5h-145c-0.83,0-1.5-0.67-1.5-1.5v-81
				c0-0.83,0.67-1.5,1.5-1.5H236.13 M236.13,158h-145c-1.1,0-2,0.9-2,2v81c0,1.1,0.9,2,2,2h145c1.1,0,2-0.9,2-2v-81
				C238.13,158.9,237.23,158,236.13,158L236.13,158z"/>
		</g>
		<text transform="matrix(1 0 0 1 131.5997 188.7673)" fill="#FFFFFF" font-family="'ArialMT'" font-size="16px">Send the</text>
		<text transform="matrix(1 0 0 1 128.9435 220.7673)" fill="#FFFFFF" font-family="'ArialMT'" font-size="16px">templates</text>
	</g>
	<g>
		<g>
			<path fill="#1C19A3" d="M2,400.42c-0.96,0-1.75-0.79-1.75-1.75v-81c0-0.96,0.79-1.75,1.75-1.75h145c0.96,0,1.75,0.79,1.75,1.75
				v81c0,0.96-0.79,1.75-1.75,1.75H2z"/>
			<path d="M147,316.17c0.83,0,1.5,0.67,1.5,1.5v81c0,0.83-0.67,1.5-1.5,1.5H2c-0.83,0-1.5-0.67-1.5-1.5v-81
				c0-0.83,0.67-1.5,1.5-1.5H147 M147,315.67H2c-1.1,0-2,0.9-2,2v81c0,1.1,0.9,2,2,2h145c1.1,0,2-0.9,2-2v-81
				C149,316.56,148.1,315.67,147,315.67L147,315.67z"/>
		</g>
		<text transform="matrix(1 0 0 1 41.1445 346.4333)" fill="#FFFFFF" font-family="'ArialMT'" font-size="16px">Metadata</text>
		<text transform="matrix(1 0 0 1 40.6992 378.4333)" fill="#FFFFFF" font-family="'ArialMT'" font-size="16px">validation</text>
	</g>
	<g>
		<g>
			<path fill="#1C19A3" d="M180.25,400.35c-0.93,0-1.68-0.75-1.68-1.68v-81c0-0.93,0.75-1.68,1.68-1.68h145
				c0.93,0,1.68,0.75,1.68,1.68v81c0,0.93-0.75,1.68-1.68,1.68H180.25z"/>
			<g>
				<path d="M325.25,316.3c0.75,0,1.36,0.61,1.36,1.36v81c0,0.75-0.61,1.36-1.36,1.36h-145c-0.75,0-1.36-0.61-1.36-1.36v-81
					c0-0.75,0.61-1.36,1.36-1.36H325.25 M325.25,315.67h-145c-1.1,0-2,0.9-2,2v81c0,1.1,0.9,2,2,2h145c1.1,0,2-0.9,2-2v-81
					C327.25,316.56,326.35,315.67,325.25,315.67L325.25,315.67z"/>
			</g>
		</g>
		<text transform="matrix(1 0 0 1 218.5043 362.4335)" fill="#FFFFFF" font-family="'ArialMT'" font-size="16px">Data load</text>
	</g>
	<g>
		<g>
			<path fill="#07B5D9" d="M90.7,525.4c-0.73,0-1.32-0.59-1.32-1.32V474.9c0-0.73,0.59-1.32,1.32-1.32h145.86
				c0.73,0,1.32,0.59,1.32,1.32v49.18c0,0.73-0.59,1.32-1.32,1.32H90.7z"/>
			<path d="M236.56,473.83c0.59,0,1.07,0.48,1.07,1.07v49.18c0,0.59-0.48,1.07-1.07,1.07H90.7c-0.59,0-1.07-0.48-1.07-1.07V474.9
				c0-0.59,0.48-1.07,1.07-1.07H236.56 M236.56,473.33H90.7c-0.87,0-1.57,0.7-1.57,1.57v49.18c0,0.87,0.7,1.57,1.57,1.57h145.86
				c0.87,0,1.57-0.7,1.57-1.57V474.9C238.13,474.03,237.42,473.33,236.56,473.33L236.56,473.33z"/>
		</g>
		<text transform="matrix(1 0 0 1 108.9241 503.7582)" fill="#FFFFFF" font-family="'ArialMT'" font-size="16px">Apply feedback</text>
	</g>
	<g>
		<g>
			<path fill="#1C19A3" d="M90.7,650.71c-0.73,0-1.32-0.59-1.32-1.32v-49.18c0-0.73,0.59-1.32,1.32-1.32h145.86
				c0.73,0,1.32,0.59,1.32,1.32v49.18c0,0.73-0.59,1.32-1.32,1.32H90.7z"/>
			<g>
				<path d="M236.56,599.15c0.59,0,1.07,0.48,1.07,1.07v49.18c0,0.59-0.48,1.07-1.07,1.07H90.7c-0.59,0-1.07-0.48-1.07-1.07v-49.18
					c0-0.59,0.48-1.07,1.07-1.07H236.56 M236.56,598.65H90.7c-0.87,0-1.57,0.7-1.57,1.57v49.18c0,0.87,0.7,1.57,1.57,1.57h145.86
					c0.87,0,1.57-0.7,1.57-1.57v-49.18C238.13,599.35,237.42,598.65,236.56,598.65L236.56,598.65z"/>
			</g>
		</g>
		<text transform="matrix(1 0 0 1 134.2758 629.0737)" fill="#FFFFFF" font-family="'ArialMT'" font-size="16px">Release</text>
	</g>
	<g>
		<line fill="none" stroke="#6B757E" stroke-width="2" stroke-miterlimit="10" x1="163.63" y1="528.9" x2="163.63" y2="588.94"/>
		<g>
			<polygon fill="#6B757E" points="159.14,587.63 163.63,595.4 168.11,587.63 			"/>
		</g>
	</g>
	<g>
		<line fill="none" stroke="#6B757E" stroke-width="2" stroke-miterlimit="10" x1="163.63" y1="88.25" x2="163.63" y2="148.29"/>
		<g>
			<polygon fill="#6B757E" points="159.14,146.98 163.63,154.75 168.11,146.98 			"/>
		</g>
	</g>
	<g>
		<path fill="none" stroke="#6B757E" stroke-width="2" stroke-miterlimit="10" d="M163.63,246.33v31.33c0,1.1-0.9,2-2,2H76.5
			c-1.1,0-2,0.9-2,2v24.29"/>
		<g>
			<polygon fill="#6B757E" points="70.01,304.64 74.5,312.42 78.99,304.64 			"/>
		</g>
	</g>
	<g>
		<path fill="none" stroke="#6B757E" stroke-width="2" stroke-miterlimit="10" d="M163.63,246.25v31.42c0,1.1,0.9,2,2,2h85.12
			c1.1,0,2,0.9,2,2v24.29"/>
		<g>
			<polygon fill="#6B757E" points="248.26,304.64 252.75,312.42 257.24,304.64 			"/>
		</g>
	</g>
	<g>
		<path fill="none" stroke="#6B757E" stroke-width="2" stroke-miterlimit="10" d="M163.62,463.54v-24.87c0-1.1,0.9-2,2-2h85.13
			c1.1,0,2-0.9,2-2v-30.75"/>
		<g>
			<polygon fill="#6B757E" points="168.11,462.23 163.62,470 159.14,462.23 			"/>
		</g>
	</g>
	<g>
		<path fill="none" stroke="#6B757E" stroke-width="2" stroke-miterlimit="10" d="M163.62,463.62v-24.96c0-1.1-0.9-2-2-2H76.5
			c-1.1,0-2-0.9-2-2v-30.75"/>
		<g>
			<polygon fill="#6B757E" points="168.11,462.31 163.62,470.08 159.14,462.31 			"/>
		</g>
	</g>
</g>
</svg>
